# xmcd
#
# Track frame offsets:
#	150
#	27144
#	56491
#	77637
#	98822
#	116095
#	132894
#	149091
#	176914
#	198695
#	214506
#	233912
#	252711
#	277734
#
# Disc length: 4096 seconds
#
# Revision: 0
# Processed by: cddbd v1.4PL0 Copyright (c) Steve Scherf et al.
# Submitted via: EasyCDDAExtractor 4.6.0.1
#
DISCID=d00ffe0e
DTITLE=Peter Green - The Best Of Peter Green Splinter Group 
DYEAR=2002
DGENRE=
TTITLE0=Burgler
TTITLE1=I'm A Steady Rollin Man
TTITLE2=Big Change Is Gonna Come
TTITLE3=Phonograph Blues
TTITLE4=Help Me
TTITLE5=Sweet Home Chicago
TTITLE6=Hitch Hiking Woman
TTITLE7=Tribal Dance
TTITLE8=Homework
TTITLE9=Love In Vain Blues
TTITLE10=You'll Be Sorry Someday
TTITLE11=Look On Yonder Wall
TTITLE12=Traveling Riverside Blues
TTITLE13=Going Down
EXTD=
EXTT0=
EXTT1=
EXTT2=
EXTT3=
EXTT4=
EXTT5=
EXTT6=
EXTT7=
EXTT8=
EXTT9=
EXTT10=
EXTT11=
EXTT12=
EXTT13=
PLAYORDER=
